# xmcd CD database generated by RipIT
#
# Track frame offsets:
# 150
# 15950
# 42713
# 62250
# 76767
# 100187
# 121938
# 144177
# 158935
# 183051
# 202559
#
# Disc length: 2967 seconds
#
# Revision: 0
# Processed by: cddbd v1.5.2PL0 Copyright (c) Steve Scherf et al.
# Submitted via: RipIT 3.5.1 www.suwald.com/ripit/ripit.html at Fr 20. Jul 18:49:14 CEST 2007
#
DISCID=740b950b
DTITLE=Various Artist - Delicatessen Tradition and Moderne
DYEAR=1900
DGENRE=blues
TTITLE0=Taj Mahal - Baby You''re My Destiny
TTITLE1=Trio Continental - MBO
TTITLE2=Mary Coughlan - Ain''t No Love In The Heart Of The City
TTITLE3=Holly Cole - Too Darn Hot
TTITLE4=Trio Contineltal - With A Little Help From My Friends
TTITLE5=Lester Quitzau - Time Takes Time
TTITLE6=Geoff Muldaur - Just A Little While To Stay Here
TTITLE7=Holly Cole - Don''t Fence Me In
TTITLE8=Ellen McIlwaine - Take Me To The River
TTITLE9=Freddie Roulette - River''s Invitation
TTITLE10=Taj Mahal Trio - Lovin'' In My Baby''s Eyes
EXTD=
EXTT0=
EXTT1=
EXTT2=
EXTT3=
EXTT4=
EXTT5=
EXTT6=
EXTT7=
EXTT8=
EXTT9=
EXTT10=
PLAYORDER=
